<svg id="Group_871" data-name="Group 871" xmlns="http://www.w3.org/2000/svg" xmlns:xlink="http://www.w3.org/1999/xlink" width="650" height="130.762" viewBox="0 0 650 130.762">
  <defs>
    <clipPath id="clip-path">
      <rect id="Rectangle_934" data-name="Rectangle 934" width="650" height="130.762" fill="none"/>
    </clipPath>
  </defs>
  <g id="Group_870" data-name="Group 870" clip-path="url(#clip-path)">
    <path id="Path_913" data-name="Path 913" d="M245.777,78.49q0-22.779,10.955-33.615t32.152-10.836a72.268,72.268,0,0,1,18.034,2.136v13.6a67.114,67.114,0,0,0-15.978-2.056q-9.728,0-15.858,3.045a19.442,19.442,0,0,0-9.175,9.728q-3.046,6.686-3.045,17.678,0,16.609,6.287,23.846t19.181,7.238a62.209,62.209,0,0,0,18.588-3.322v13.6a63.6,63.6,0,0,1-21.119,3.48q-40.023,0-40.022-44.53" transform="translate(-84.657 -11.724)" fill="#fff"/>
    <path id="Path_914" data-name="Path 914" d="M395.723,37.123a21.789,21.789,0,0,1,11.43,10.2q3.8,7.118,3.8,19.3v54.813H397.265l-1.187-9.333h-.949a26.011,26.011,0,0,1-10.362,7.989,34.161,34.161,0,0,1-13.841,2.768,32.331,32.331,0,0,1-14.2-2.887,20.956,20.956,0,0,1-9.175-8.305,24.478,24.478,0,0,1-3.2-12.695q0-11.7,7.83-18.112t24.757-7.831l17.876-1.819V65.756q0-7.2-2.254-11.232a12.527,12.527,0,0,0-6.881-5.734,36.2,36.2,0,0,0-12.22-1.7,78.335,78.335,0,0,0-11.43.909A69.718,69.718,0,0,0,350.2,50.807V37.835a73.061,73.061,0,0,1,12.5-2.808,94.61,94.61,0,0,1,13.287-.989q12.1,0,19.734,3.084m-9.768,71.462a24.285,24.285,0,0,0,8.858-6.763V81.5l-16.531,1.661q-9.176.949-13.327,4.429T360.8,97.394q0,6.566,3.757,9.966t11.113,3.4a25.444,25.444,0,0,0,10.282-2.175" transform="translate(-118.611 -11.725)" fill="#fff"/>
    <path id="Path_915" data-name="Path 915" d="M463.565,119.461V106.648a85.387,85.387,0,0,0,24.757,3.718q10.123,0,14.83-3.243a10.72,10.72,0,0,0,4.706-9.412q0-5.06-2.649-7.711T496.231,86l-12.338-2.452q-11.628-2.293-16.887-8.147t-5.26-15.661A23.393,23.393,0,0,1,465.7,46.259q3.954-5.813,12.023-9.017t20.011-3.2a81.571,81.571,0,0,1,21.039,2.61V49.463a77.355,77.355,0,0,0-20.644-2.768q-11.074,0-15.977,3.44a10.717,10.717,0,0,0-4.9,9.214,10.373,10.373,0,0,0,2.57,7.356q2.569,2.769,8.74,4.113L500.9,73.191q11.784,2.452,17.164,8.107T523.44,97a23.92,23.92,0,0,1-4.034,13.921,25.268,25.268,0,0,1-11.9,8.978q-7.871,3.123-19.022,3.124a83.178,83.178,0,0,1-24.915-3.559" transform="translate(-159.047 -11.725)" fill="#fff"/>
    <path id="Path_916" data-name="Path 916" d="M678.619,41.593q7.157,7.554,7.158,23.926v55.92H669.325V66.31q0-9.491-3.876-13.643t-10.836-4.153a23.734,23.734,0,0,0-9.927,2.254,21.738,21.738,0,0,0-8.5,7.079,68.094,68.094,0,0,1,.4,7.2v56.395H620.445V66.31q0-9.569-3.718-13.683t-10.6-4.113a22.9,22.9,0,0,0-10.4,2.57,22.381,22.381,0,0,0-8.581,7.791v62.564H570.694V35.384h13.763l1.187,9.491h.869a32.8,32.8,0,0,1,11.113-8.067,33.29,33.29,0,0,1,13.565-2.769,27.509,27.509,0,0,1,12.892,2.887,20.281,20.281,0,0,1,8.7,9.056,35.022,35.022,0,0,1,26.339-11.944q12.339,0,19.5,7.554" transform="translate(-196.574 -11.725)" fill="#fff"/>
    <path id="Path_917" data-name="Path 917" d="M833.441,83.553h-54.1q.316,9.65,3.362,15.423a18.1,18.1,0,0,0,9.056,8.384q6.009,2.611,15.74,2.61a86.47,86.47,0,0,0,21.593-3.243V119.7a92.151,92.151,0,0,1-23.649,3.322q-21.752,0-32.271-10.678T762.652,78.333q0-21.831,9.53-33.062t26.853-11.232q16.768,0,25.587,11.192t8.819,33.576ZM784.521,51.8q-4.944,6.448-5.26,21.316h38.677q-.317-14.869-5.022-21.316T798.877,45.35q-9.414,0-14.356,6.446" transform="translate(-262.694 -11.725)" fill="#fff"/>
    <path id="Path_918" data-name="Path 918" d="M917.6,78.564l31.084,43.581H930.254L907.712,90.429l-22.463,31.717H867.136L898.063,78.8,867.769,36.091H886.2l21.909,30.768,21.751-30.768h17.955Z" transform="translate(-298.683 -12.431)" fill="#fff"/>
    <rect id="Rectangle_933" data-name="Rectangle 933" width="130.762" height="130.762" fill="#fff"/>
    <path id="Path_919" data-name="Path 919" d="M36.795,96.568V52.326L75.227,74.447Zm39.773-19.44v44.465L38.136,99.249Zm0-49.6V71.766L38.349,49.645Zm3.352,0,38.209,22.121L79.92,71.766Zm0,49.6,38.209,22.121L79.92,121.594Z" transform="translate(-12.674 -9.481)" fill="#2455cf"/>
  </g>
</svg>
